<svg width="75" height="22" viewBox="0 0 75 22" fill="none" xmlns="http://www.w3.org/2000/svg">
<rect width="75" height="22" rx="4" fill="#EBFC88"/>
<path d="M10.9998 18C10.0431 18 9.13897 17.8162 8.2873 17.4487C7.43563 17.0812 6.69188 16.5796 6.05605 15.9437C5.42022 15.3079 4.91855 14.5642 4.55105 13.7125C4.18355 12.8608 3.9998 11.9567 3.9998 11C3.9998 10.0317 4.18355 9.12458 4.55105 8.27875C4.91855 7.43292 5.42022 6.69208 6.05605 6.05625C6.69188 5.42042 7.43563 4.91875 8.2873 4.55125C9.13897 4.18375 10.0431 4 10.9998 4C11.9681 4 12.8752 4.18375 13.7211 4.55125C14.5669 4.91875 15.3077 5.42042 15.9436 6.05625C16.5794 6.69208 17.0811 7.43292 17.4486 8.27875C17.8161 9.12458 17.9998 10.0317 17.9998 11C17.9998 11.9567 17.8161 12.8608 17.4486 13.7125C17.0811 14.5642 16.5794 15.3079 15.9436 15.9437C15.3077 16.5796 14.5669 17.0812 13.7211 17.4487C12.8752 17.8162 11.9681 18 10.9998 18ZM10.9998 16.565C11.3031 16.145 11.5656 15.7075 11.7873 15.2525C12.009 14.7975 12.1898 14.3133 12.3298 13.8H9.6698C9.8098 14.3133 9.99063 14.7975 10.2123 15.2525C10.434 15.7075 10.6965 16.145 10.9998 16.565ZM9.1798 16.285C8.9698 15.9 8.78605 15.5004 8.62855 15.0863C8.47105 14.6721 8.3398 14.2433 8.2348 13.8H6.1698C6.50814 14.3833 6.93105 14.8908 7.43855 15.3225C7.94605 15.7542 8.52647 16.075 9.1798 16.285ZM12.8198 16.285C13.4731 16.075 14.0536 15.7542 14.5611 15.3225C15.0686 14.8908 15.4915 14.3833 15.8298 13.8H13.7648C13.6598 14.2433 13.5286 14.6721 13.3711 15.0863C13.2136 15.5004 13.0298 15.9 12.8198 16.285ZM5.5748 12.4H7.9548C7.9198 12.1667 7.89355 11.9362 7.87605 11.7087C7.85855 11.4812 7.8498 11.245 7.8498 11C7.8498 10.755 7.85855 10.5188 7.87605 10.2913C7.89355 10.0637 7.9198 9.83333 7.9548 9.6H5.5748C5.51647 9.83333 5.47272 10.0637 5.44355 10.2913C5.41438 10.5188 5.3998 10.755 5.3998 11C5.3998 11.245 5.41438 11.4812 5.44355 11.7087C5.47272 11.9362 5.51647 12.1667 5.5748 12.4ZM9.3548 12.4H12.6448C12.6798 12.1667 12.7061 11.9362 12.7236 11.7087C12.7411 11.4812 12.7498 11.245 12.7498 11C12.7498 10.755 12.7411 10.5188 12.7236 10.2913C12.7061 10.0637 12.6798 9.83333 12.6448 9.6H9.3548C9.3198 9.83333 9.29355 10.0637 9.27605 10.2913C9.25855 10.5188 9.2498 10.755 9.2498 11C9.2498 11.245 9.25855 11.4812 9.27605 11.7087C9.29355 11.9362 9.3198 12.1667 9.3548 12.4ZM14.0448 12.4H16.4248C16.4831 12.1667 16.5269 11.9362 16.5561 11.7087C16.5852 11.4812 16.5998 11.245 16.5998 11C16.5998 10.755 16.5852 10.5188 16.5561 10.2913C16.5269 10.0637 16.4831 9.83333 16.4248 9.6H14.0448C14.0798 9.83333 14.1061 10.0637 14.1236 10.2913C14.1411 10.5188 14.1498 10.755 14.1498 11C14.1498 11.245 14.1411 11.4812 14.1236 11.7087C14.1061 11.9362 14.0798 12.1667 14.0448 12.4ZM13.7648 8.2H15.8298C15.4915 7.61667 15.0686 7.10917 14.5611 6.6775C14.0536 6.24583 13.4731 5.925 12.8198 5.715C13.0298 6.1 13.2136 6.49958 13.3711 6.91375C13.5286 7.32792 13.6598 7.75667 13.7648 8.2ZM9.6698 8.2H12.3298C12.1898 7.68667 12.009 7.2025 11.7873 6.7475C11.5656 6.2925 11.3031 5.855 10.9998 5.435C10.6965 5.855 10.434 6.2925 10.2123 6.7475C9.99063 7.2025 9.8098 7.68667 9.6698 8.2ZM6.1698 8.2H8.2348C8.3398 7.75667 8.47105 7.32792 8.62855 6.91375C8.78605 6.49958 8.9698 6.1 9.1798 5.715C8.52647 5.925 7.94605 6.24583 7.43855 6.6775C6.93105 7.10917 6.50814 7.61667 6.1698 8.2Z" fill="#0B3681"/>
<path d="M29.9219 17.5H23.5625V6.07812H29.9219V7.25H24.8906V10.9453H29.6328V12.1016H24.8906V16.3281H29.9219V17.5ZM34.2969 13.1172L31.3359 8.9375H32.8203L35.0781 12.2344L37.3281 8.9375H38.7969L35.8359 13.1172L38.9609 17.5H37.4766L35.0781 14.0078L32.6641 17.5H31.1953L34.2969 13.1172ZM43.3984 16.5938C43.612 16.5938 43.8307 16.5755 44.0547 16.5391C44.2786 16.5026 44.4609 16.4583 44.6016 16.4062V17.4141C44.4505 17.4818 44.2396 17.5391 43.9688 17.5859C43.7031 17.6328 43.4427 17.6562 43.1875 17.6562C42.7344 17.6562 42.3229 17.5781 41.9531 17.4219C41.5833 17.2604 41.2865 16.9896 41.0625 16.6094C40.8438 16.2292 40.7344 15.7031 40.7344 15.0312V9.95312H39.5156V9.32031L40.7422 8.8125L41.2578 6.95312H42.0391V8.9375H44.5469V9.95312H42.0391V14.9922C42.0391 15.5286 42.1615 15.9297 42.4062 16.1953C42.6562 16.4609 42.987 16.5938 43.3984 16.5938ZM49.6328 8.78125C50.362 8.78125 50.987 8.94271 51.5078 9.26562C52.0286 9.58854 52.4271 10.0417 52.7031 10.625C52.9792 11.2031 53.1172 11.8802 53.1172 12.6562V13.4609H47.2031C47.2188 14.4661 47.4688 15.2318 47.9531 15.7578C48.4375 16.2839 49.1198 16.5469 50 16.5469C50.5417 16.5469 51.0208 16.4974 51.4375 16.3984C51.8542 16.2995 52.2865 16.1536 52.7344 15.9609V17.1016C52.3021 17.2943 51.8724 17.4349 51.4453 17.5234C51.0234 17.612 50.5234 17.6562 49.9453 17.6562C49.1224 17.6562 48.4036 17.4896 47.7891 17.1562C47.1797 16.8177 46.7057 16.3229 46.3672 15.6719C46.0286 15.0208 45.8594 14.224 45.8594 13.2812C45.8594 12.3594 46.013 11.5625 46.3203 10.8906C46.6328 10.2135 47.0703 9.69271 47.6328 9.32812C48.2005 8.96354 48.8672 8.78125 49.6328 8.78125ZM49.6172 9.84375C48.9245 9.84375 48.3724 10.0703 47.9609 10.5234C47.5495 10.9766 47.3047 11.6094 47.2266 12.4219H51.7578C51.7526 11.9115 51.6719 11.4635 51.5156 11.0781C51.3646 10.6875 51.1328 10.3854 50.8203 10.1719C50.5078 9.95312 50.1068 9.84375 49.6172 9.84375ZM59.2109 8.78125C59.3828 8.78125 59.5625 8.79167 59.75 8.8125C59.9375 8.82812 60.1042 8.85156 60.25 8.88281L60.0859 10.0859C59.9453 10.0495 59.7891 10.0208 59.6172 10C59.4453 9.97917 59.2839 9.96875 59.1328 9.96875C58.7891 9.96875 58.4635 10.0391 58.1562 10.1797C57.8542 10.3151 57.5885 10.513 57.3594 10.7734C57.1302 11.0286 56.9505 11.3385 56.8203 11.7031C56.6901 12.0625 56.625 12.4635 56.625 12.9062V17.5H55.3203V8.9375H56.3984L56.5391 10.5156H56.5938C56.7708 10.1979 56.9844 9.90885 57.2344 9.64844C57.4844 9.38281 57.7734 9.17188 58.1016 9.01562C58.4349 8.85938 58.8047 8.78125 59.2109 8.78125ZM65.9219 8.78125C66.9375 8.78125 67.7057 9.03125 68.2266 9.53125C68.7474 10.026 69.0078 10.8229 69.0078 11.9219V17.5H67.7266V12.0078C67.7266 11.2943 67.5625 10.7604 67.2344 10.4062C66.9115 10.0521 66.4141 9.875 65.7422 9.875C64.7943 9.875 64.1276 10.1432 63.7422 10.6797C63.3568 11.2161 63.1641 11.9948 63.1641 13.0156V17.5H61.8672V8.9375H62.9141L63.1094 10.1719H63.1797C63.362 9.86979 63.5938 9.61719 63.875 9.41406C64.1562 9.20573 64.4714 9.04948 64.8203 8.94531C65.1693 8.83594 65.5365 8.78125 65.9219 8.78125Z" fill="#0B3681"/>
</svg>
